<mxfile host="Electron" agent="Mozilla/5.0 (X11; Linux x86_64) AppleWebKit/537.36 (KHTML, like Gecko) draw.io/24.7.8 Chrome/128.0.6613.120 Electron/32.1.0 Safari/537.36" version="24.7.8">
  <diagram name="Σελίδα-1" id="fF3Kp2_zvcSA5e5cF5G3">
    <mxGraphModel dx="1195" dy="699" grid="1" gridSize="10" guides="1" tooltips="1" connect="1" arrows="1" fold="1" page="1" pageScale="1" pageWidth="1169" pageHeight="827" background="none" math="0" shadow="0">
      <root>
        <mxCell id="0" />
        <mxCell id="1" parent="0" />
        <mxCell id="24luctL903By2tnGlti_-34" value="Επίκληση στη λογική" style="swimlane;whiteSpace=wrap;html=1;fillColor=#60a917;fontColor=#ffffff;strokeColor=#60A917;gradientColor=none;swimlaneFillColor=none;strokeWidth=2;rounded=0;shadow=0;glass=0;fontFamily=Helvetica;" parent="1" vertex="1">
          <mxGeometry x="34" y="110" width="230" height="330" as="geometry" />
        </mxCell>
        <mxCell id="24luctL903By2tnGlti_-35" value="&lt;ul&gt;&lt;li&gt;Παραδείγματα&lt;/li&gt;&lt;li&gt;Αποδείξεις&lt;/li&gt;&lt;li&gt;Γεγονότα&lt;/li&gt;&lt;li&gt;Στατιστικά στοιχεία&lt;/li&gt;&lt;li&gt;Πορίσματα ερευνών&lt;/li&gt;&lt;li&gt;Γενικές αλήθειες&lt;/li&gt;&lt;li&gt;Αυθεντίες&lt;/li&gt;&lt;li&gt;Γνωμικά&lt;/li&gt;&lt;li&gt;Μαρτυρίες&lt;/li&gt;&lt;li&gt;Παραθέματα&lt;/li&gt;&lt;/ul&gt;" style="text;strokeColor=none;fillColor=none;html=1;whiteSpace=wrap;verticalAlign=middle;overflow=hidden;strokeWidth=1;fontFamily=Times New Roman;" parent="24luctL903By2tnGlti_-34" vertex="1">
          <mxGeometry y="44" width="200" height="170" as="geometry" />
        </mxCell>
        <mxCell id="24luctL903By2tnGlti_-36" value="&lt;font style=&quot;font-size: 14px;&quot;&gt;Τεκμήρια&lt;/font&gt;" style="text;html=1;align=center;verticalAlign=middle;whiteSpace=wrap;rounded=0;fontFamily=Times New Roman;" parent="24luctL903By2tnGlti_-34" vertex="1">
          <mxGeometry x="14" y="30" width="60" height="30" as="geometry" />
        </mxCell>
        <mxCell id="24luctL903By2tnGlti_-37" value="&lt;font style=&quot;font-size: 14px;&quot;&gt;Επιιχειρήματα / Συλλογισμοί&lt;/font&gt;" style="text;html=1;align=center;verticalAlign=middle;whiteSpace=wrap;rounded=0;fontFamily=Times New Roman;" parent="24luctL903By2tnGlti_-34" vertex="1">
          <mxGeometry x="1" y="205" width="200" height="30" as="geometry" />
        </mxCell>
        <mxCell id="24luctL903By2tnGlti_-40" value="&lt;ul&gt;&lt;li&gt;Παραγωγικοί&lt;/li&gt;&lt;li&gt;Επαγωγικοί&lt;/li&gt;&lt;li&gt;Αναλογικοί&lt;/li&gt;&lt;li&gt;Προτάσεις κρίσεως&lt;/li&gt;&lt;li&gt;Ρητορικά ερωτήματα&lt;/li&gt;&lt;/ul&gt;" style="text;strokeColor=none;fillColor=none;html=1;whiteSpace=wrap;verticalAlign=middle;overflow=hidden;fontFamily=Times New Roman;" parent="24luctL903By2tnGlti_-34" vertex="1">
          <mxGeometry y="219" width="200" height="90" as="geometry" />
        </mxCell>
        <mxCell id="24luctL903By2tnGlti_-41" value="Επίκληση στο συναίσθημα" style="swimlane;whiteSpace=wrap;html=1;fillColor=#1ba1e2;fontColor=#ffffff;strokeColor=#1BA1E2;swimlaneFillColor=none;strokeWidth=2;fontFamily=Helvetica;" parent="1" vertex="1">
          <mxGeometry x="280" y="110" width="230" height="210" as="geometry" />
        </mxCell>
        <mxCell id="24luctL903By2tnGlti_-42" value="&lt;ul&gt;&lt;li&gt;Περιγραφή ή αφήγηση&lt;/li&gt;&lt;li&gt;Χιούμορ ή ειρωνεία&lt;/li&gt;&lt;li&gt;Μεταφορά&lt;/li&gt;&lt;li&gt;Υπερβολή&lt;/li&gt;&lt;li&gt;Λογοπαίγνειο&lt;/li&gt;&lt;li&gt;Ερωτήματα&lt;/li&gt;&lt;li&gt;Ποιοτικός / εικολοπλαστικός λόγος&lt;/li&gt;&lt;li&gt;Δισημία&lt;/li&gt;&lt;li&gt;Συνειρμός&lt;/li&gt;&lt;li&gt;Ρητορικά ερωτήματα&lt;/li&gt;&lt;/ul&gt;" style="text;strokeColor=none;fillColor=none;html=1;whiteSpace=wrap;verticalAlign=middle;overflow=hidden;fontFamily=Times New Roman;" parent="24luctL903By2tnGlti_-41" vertex="1">
          <mxGeometry y="20" width="200" height="180" as="geometry" />
        </mxCell>
        <mxCell id="c6JisKelvXLRCdD3xund-1" value="Επίκληση στην αυθεντία" style="swimlane;whiteSpace=wrap;html=1;fillColor=#D80073;fontColor=#ffffff;strokeColor=#D80073;swimlaneFillColor=none;gradientColor=none;strokeWidth=2;fontFamily=Helvetica;" vertex="1" parent="1">
          <mxGeometry x="526" y="310" width="230" height="120" as="geometry" />
        </mxCell>
        <mxCell id="c6JisKelvXLRCdD3xund-2" value="&lt;ul&gt;&lt;li&gt;Όνομα αυθεντίας&lt;/li&gt;&lt;li&gt;Ρήση αυθεντίας&lt;/li&gt;&lt;li&gt;Όνομα και ρήση αυθεντίας&lt;/li&gt;&lt;li&gt;Γνωμικά&lt;/li&gt;&lt;li&gt;Παροιμίες&lt;/li&gt;&lt;/ul&gt;" style="text;strokeColor=none;fillColor=none;html=1;whiteSpace=wrap;verticalAlign=middle;overflow=hidden;fontFamily=Times New Roman;" vertex="1" parent="c6JisKelvXLRCdD3xund-1">
          <mxGeometry y="20" width="190" height="95" as="geometry" />
        </mxCell>
        <mxCell id="c6JisKelvXLRCdD3xund-3" value="Επίκληση στο ήθος του πομπού" style="swimlane;whiteSpace=wrap;html=1;fillColor=#76608a;fontColor=#ffffff;strokeColor=#76608A;swimlaneFillColor=none;strokeWidth=2;fontFamily=Helvetica;" vertex="1" parent="1">
          <mxGeometry x="526" y="110" width="230" height="190" as="geometry" />
        </mxCell>
        <mxCell id="c6JisKelvXLRCdD3xund-4" value="&lt;ul&gt;&lt;li&gt;Θετικοί χαρακτηρισμοί σε α&#39; πρόσωπο&lt;/li&gt;&lt;li&gt;Αναφορά σε θετικές ενέργειες - συμπεριφορές&lt;/li&gt;&lt;li&gt;Προβολή της προσωπικότητας και των αρχών του&lt;/li&gt;&lt;li&gt;Επαινοι&lt;/li&gt;&lt;li&gt;Εγκώμια&lt;/li&gt;&lt;li&gt;Αξιοπιστος λόγος&lt;/li&gt;&lt;/ul&gt;" style="text;strokeColor=none;fillColor=none;html=1;whiteSpace=wrap;verticalAlign=middle;overflow=hidden;fontFamily=Times New Roman;textShadow=0;" vertex="1" parent="c6JisKelvXLRCdD3xund-3">
          <mxGeometry y="20" width="200" height="150" as="geometry" />
        </mxCell>
        <mxCell id="c6JisKelvXLRCdD3xund-5" value="Επίθεση στο ήθος του αντιπάλου" style="swimlane;whiteSpace=wrap;html=1;fillColor=#871478;fontColor=#ffffff;strokeColor=#871478;swimlaneFillColor=none;strokeWidth=2;rounded=0;fontFamily=Helvetica;" vertex="1" parent="1">
          <mxGeometry x="280" y="330" width="230" height="140" as="geometry" />
        </mxCell>
        <mxCell id="c6JisKelvXLRCdD3xund-6" value="&lt;ul&gt;&lt;li&gt;Ύβρεις / Αρνητικοί χαρακτηρισμοί&lt;/li&gt;&lt;li&gt;Αναφορά σε αρνητικές ενέργειες - συμπεριφορές&lt;/li&gt;&lt;li&gt;Αθέμιτη κριτική / επίθεση στην προσωπική ζωή&lt;/li&gt;&lt;/ul&gt;" style="text;strokeColor=none;fillColor=none;html=1;whiteSpace=wrap;verticalAlign=middle;overflow=hidden;fontFamily=Times New Roman;" vertex="1" parent="c6JisKelvXLRCdD3xund-5">
          <mxGeometry y="20" width="200" height="105" as="geometry" />
        </mxCell>
      </root>
    </mxGraphModel>
  </diagram>
</mxfile>
